<?xml version="1.0" standalone="no"?>
<!DOCTYPE svg PUBLIC "-//W3C//DTD SVG 1.1//EN"
"http://www.w3.org/Graphics/SVG/1.1/DTD/svg11.dtd">
<svg width="657.0" height="200" version="1.1" xmlns="http://www.w3.org/2000/svg"><text x="0" y="0" style="font-family:sans-serif;font-size:15px;text-anchor:end;alignment-baseline:hanging;transform:translate(29px, 90px);">1</text><text x="0" y="0" style="font-family:sans-serif;font-size:15px;text-anchor:end;alignment-baseline:hanging;transform:translate(29px, 50px);">5</text><text x="0" y="0" style="font-family:sans-serif;font-size:15px;text-anchor:end;alignment-baseline:hanging;transform:translate(29px, 0px);">10</text><text x="0" y="0" style="font-family:sans-serif;font-size:15px;text-anchor:middle;transform:translate(11px, 50px) rotate(-90deg)">units</text><rect x="32" y="0.0" width="147.0" height="100.0" fill="#B6B6F2" /><rect x="182.0" y="0.0" width="42.0" height="100.0" fill="#B6F2BA" /><rect x="227.0" y="0.0" width="162.0" height="100.0" fill="#A5E5DB" /><rect x="392.0" y="0.0" width="192.0" height="100.0" fill="#F2CFB6" /><rect x="587.0" y="0.0" width="27.0" height="100.0" fill="#F2B6B6" /><rect x="32" y="60.0" width="12" height="40.0" fill="#4B4CBF" /><text x="0" y="0" style="font-family:sans-serif;font-size:12px;text-anchor:end;transform:translate(44px, 108px) rotate(-45deg);">person</text><rect x="47.0" y="80.0" width="12" height="20.0" fill="#4B4CBF" /><text x="0" y="0" style="font-family:sans-serif;font-size:12px;text-anchor:end;transform:translate(59px, 108px) rotate(-45deg);">car</text><rect x="62.0" y="90.0" width="12" height="10.0" fill="#4B4CBF" /><text x="0" y="0" style="font-family:sans-serif;font-size:12px;text-anchor:end;transform:translate(74px, 108px) rotate(-45deg);">painting</text><rect x="77.0" y="90.0" width="12" height="10.0" fill="#4B4CBF" /><text x="0" y="0" style="font-family:sans-serif;font-size:12px;text-anchor:end;transform:translate(89px, 108px) rotate(-45deg);">road</text><rect x="92.0" y="90.0" width="12" height="10.0" fill="#4B4CBF" /><text x="0" y="0" style="font-family:sans-serif;font-size:12px;text-anchor:end;transform:translate(104px, 108px) rotate(-45deg);">cat</text><rect x="107.0" y="90.0" width="12" height="10.0" fill="#4B4CBF" /><text x="0" y="0" style="font-family:sans-serif;font-size:12px;text-anchor:end;transform:translate(119px, 108px) rotate(-45deg);">sky</text><rect x="122.0" y="90.0" width="12" height="10.0" fill="#4B4CBF" /><text x="0" y="0" style="font-family:sans-serif;font-size:12px;text-anchor:end;transform:translate(134px, 108px) rotate(-45deg);">tree</text><rect x="137.0" y="90.0" width="12" height="10.0" fill="#4B4CBF" /><text x="0" y="0" style="font-family:sans-serif;font-size:12px;text-anchor:end;transform:translate(149px, 108px) rotate(-45deg);">horse</text><rect x="152.0" y="90.0" width="12" height="10.0" fill="#4B4CBF" /><text x="0" y="0" style="font-family:sans-serif;font-size:12px;text-anchor:end;transform:translate(164px, 108px) rotate(-45deg);">curtain</text><rect x="167.0" y="90.0" width="12" height="10.0" fill="#4B4CBF" /><text x="0" y="0" style="font-family:sans-serif;font-size:12px;text-anchor:end;transform:translate(179px, 108px) rotate(-45deg);">building</text><rect x="182.0" y="90.0" width="12" height="10.0" fill="#55B05B" /><text x="0" y="0" style="font-family:sans-serif;font-size:12px;text-anchor:end;transform:translate(194px, 108px) rotate(-45deg);">ball pit</text><rect x="197.0" y="90.0" width="12" height="10.0" fill="#55B05B" /><text x="0" y="0" style="font-family:sans-serif;font-size:12px;text-anchor:end;transform:translate(209px, 108px) rotate(-45deg);">mountain snowy</text><rect x="212.0" y="90.0" width="12" height="10.0" fill="#55B05B" /><text x="0" y="0" style="font-family:sans-serif;font-size:12px;text-anchor:end;transform:translate(224px, 108px) rotate(-45deg);">highway</text><rect x="227.0" y="60.0" width="12" height="40.0" fill="#50BDAC" /><text x="0" y="0" style="font-family:sans-serif;font-size:12px;text-anchor:end;transform:translate(239px, 108px) rotate(-45deg);">wheel</text><rect x="242.0" y="80.0" width="12" height="20.0" fill="#50BDAC" /><text x="0" y="0" style="font-family:sans-serif;font-size:12px;text-anchor:end;transform:translate(254px, 108px) rotate(-45deg);">drawer</text><rect x="257.0" y="80.0" width="12" height="20.0" fill="#50BDAC" /><text x="0" y="0" style="font-family:sans-serif;font-size:12px;text-anchor:end;transform:translate(269px, 108px) rotate(-45deg);">head</text><rect x="272.0" y="90.0" width="12" height="10.0" fill="#50BDAC" /><text x="0" y="0" style="font-family:sans-serif;font-size:12px;text-anchor:end;transform:translate(284px, 108px) rotate(-45deg);">hair</text><rect x="287.0" y="90.0" width="12" height="10.0" fill="#50BDAC" /><text x="0" y="0" style="font-family:sans-serif;font-size:12px;text-anchor:end;transform:translate(299px, 108px) rotate(-45deg);">pane</text><rect x="302.0" y="90.0" width="12" height="10.0" fill="#50BDAC" /><text x="0" y="0" style="font-family:sans-serif;font-size:12px;text-anchor:end;transform:translate(314px, 108px) rotate(-45deg);">roof</text><rect x="317.0" y="90.0" width="12" height="10.0" fill="#50BDAC" /><text x="0" y="0" style="font-family:sans-serif;font-size:12px;text-anchor:end;transform:translate(329px, 108px) rotate(-45deg);">crosswalk</text><rect x="332.0" y="90.0" width="12" height="10.0" fill="#50BDAC" /><text x="0" y="0" style="font-family:sans-serif;font-size:12px;text-anchor:end;transform:translate(344px, 108px) rotate(-45deg);">lid</text><rect x="347.0" y="90.0" width="12" height="10.0" fill="#50BDAC" /><text x="0" y="0" style="font-family:sans-serif;font-size:12px;text-anchor:end;transform:translate(359px, 108px) rotate(-45deg);">top</text><rect x="362.0" y="90.0" width="12" height="10.0" fill="#50BDAC" /><text x="0" y="0" style="font-family:sans-serif;font-size:12px;text-anchor:end;transform:translate(374px, 108px) rotate(-45deg);">arm</text><rect x="377.0" y="90.0" width="12" height="10.0" fill="#50BDAC" /><text x="0" y="0" style="font-family:sans-serif;font-size:12px;text-anchor:end;transform:translate(389px, 108px) rotate(-45deg);">screen</text><rect x="392.0" y="0.0" width="12" height="100.0" fill="#F0883B" /><text x="0" y="0" style="font-family:sans-serif;font-size:12px;text-anchor:end;transform:translate(404px, 108px) rotate(-45deg);">chequered</text><rect x="407.0" y="20.0" width="12" height="80.0" fill="#F0883B" /><text x="0" y="0" style="font-family:sans-serif;font-size:12px;text-anchor:end;transform:translate(419px, 108px) rotate(-45deg);">dotted</text><rect x="422.0" y="50.0" width="12" height="50.0" fill="#F0883B" /><text x="0" y="0" style="font-family:sans-serif;font-size:12px;text-anchor:end;transform:translate(434px, 108px) rotate(-45deg);">polka-dotted</text><rect x="437.0" y="70.0" width="12" height="30.0" fill="#F0883B" /><text x="0" y="0" style="font-family:sans-serif;font-size:12px;text-anchor:end;transform:translate(449px, 108px) rotate(-45deg);">swirly</text><rect x="452.0" y="70.0" width="12" height="30.0" fill="#F0883B" /><text x="0" y="0" style="font-family:sans-serif;font-size:12px;text-anchor:end;transform:translate(464px, 108px) rotate(-45deg);">grid</text><rect x="467.0" y="70.0" width="12" height="30.0" fill="#F0883B" /><text x="0" y="0" style="font-family:sans-serif;font-size:12px;text-anchor:end;transform:translate(479px, 108px) rotate(-45deg);">zigzagged</text><rect x="482.0" y="70.0" width="12" height="30.0" fill="#F0883B" /><text x="0" y="0" style="font-family:sans-serif;font-size:12px;text-anchor:end;transform:translate(494px, 108px) rotate(-45deg);">cobwebbed</text><rect x="497.0" y="80.0" width="12" height="20.0" fill="#F0883B" /><text x="0" y="0" style="font-family:sans-serif;font-size:12px;text-anchor:end;transform:translate(509px, 108px) rotate(-45deg);">perforated</text><rect x="512.0" y="90.0" width="12" height="10.0" fill="#F0883B" /><text x="0" y="0" style="font-family:sans-serif;font-size:12px;text-anchor:end;transform:translate(524px, 108px) rotate(-45deg);">flecked</text><rect x="527.0" y="90.0" width="12" height="10.0" fill="#F0883B" /><text x="0" y="0" style="font-family:sans-serif;font-size:12px;text-anchor:end;transform:translate(539px, 108px) rotate(-45deg);">cracked</text><rect x="542.0" y="90.0" width="12" height="10.0" fill="#F0883B" /><text x="0" y="0" style="font-family:sans-serif;font-size:12px;text-anchor:end;transform:translate(554px, 108px) rotate(-45deg);">lined</text><rect x="557.0" y="90.0" width="12" height="10.0" fill="#F0883B" /><text x="0" y="0" style="font-family:sans-serif;font-size:12px;text-anchor:end;transform:translate(569px, 108px) rotate(-45deg);">striped</text><rect x="572.0" y="90.0" width="12" height="10.0" fill="#F0883B" /><text x="0" y="0" style="font-family:sans-serif;font-size:12px;text-anchor:end;transform:translate(584px, 108px) rotate(-45deg);">woven</text><rect x="587.0" y="80.0" width="12" height="20.0" fill="#D92E2B" /><text x="0" y="0" style="font-family:sans-serif;font-size:12px;text-anchor:end;transform:translate(599px, 108px) rotate(-45deg);">red</text><rect x="602.0" y="90.0" width="12" height="10.0" fill="#D92E2B" /><text x="0" y="0" style="font-family:sans-serif;font-size:12px;text-anchor:end;transform:translate(614px, 108px) rotate(-45deg);">purple</text><text x="0" y="0" style="font-family:sans-serif;font-size:15px;text-anchor:end;transform:translate(179px, 3px) rotate(-90deg);">10 objects</text><text x="0" y="0" style="font-family:sans-serif;font-size:15px;text-anchor:end;transform:translate(224px, 3px) rotate(-90deg);">3 scenes</text><text x="0" y="0" style="font-family:sans-serif;font-size:15px;text-anchor:end;transform:translate(389px, 3px) rotate(-90deg);">11 parts</text><text x="0" y="0" style="font-family:sans-serif;font-size:15px;text-anchor:end;transform:translate(584px, 3px) rotate(-90deg);">13 textures</text><text x="0" y="0" style="font-family:sans-serif;font-size:15px;text-anchor:end;transform:translate(614px, 3px) rotate(-90deg);">2 colors</text></svg>